<?xml version="1.0" encoding="UTF-8"?>
<svg version="1.1" xmlns="http://www.w3.org/2000/svg" width="96" height="96">
<path d="M0 0 C5.424375 -0.020625 10.84875 -0.04125 16.4375 -0.0625 C18.15122803 -0.071604 19.86495605 -0.08070801 21.63061523 -0.09008789 C22.98160727 -0.09300716 24.33260019 -0.09555569 25.68359375 -0.09765625 C26.39100708 -0.10277222 27.09842041 -0.10788818 27.82727051 -0.11315918 C29.55192617 -0.11347032 31.27646838 -0.06225761 33 0 C34 1 34 1 34.11352539 4.05102539 C34.11327443 5.39991269 34.10771815 6.74880645 34.09765625 8.09765625 C34.09515869 9.39453369 34.09266113 10.69141113 34.09008789 12.02758789 C34.08098389 13.68910889 34.07187988 15.35062988 34.0625 17.0625 C34.041875 22.321875 34.02125 27.58125 34 33 C22.78 33 11.56 33 0 33 C0 22.11 0 11.22 0 0 Z " fill="#45B739" transform="translate(27,63)"/>
<path d="M0 0 C0.66 0 1.32 0 2 0 C5.29817033 9.61966347 7.3291844 20.37242165 3.25 30.0625 C2.53581381 31.39482666 1.78948996 32.71086779 1 34 C0.46375 34.9075 -0.0725 35.815 -0.625 36.75 C-7.16293279 42.94383106 -15.28637257 44.89008928 -24 46 C-25.60520637 39.41749907 -24.20500312 33.77981863 -20.875 27.9375 C-19.946875 26.4834375 -19.946875 26.4834375 -19 25 C-24.45764435 30.45764435 -25.83119246 36.5110835 -26 44 C-27.32 44 -28.64 44 -30 44 C-32.48928395 38.29539094 -34.1672494 33.25078416 -33 27 C-29.29047999 18.37498433 -23.12920679 14.98748947 -14.859375 11.35546875 C-9.8783812 8.99425994 -4.71023534 6.29812874 -1.375 1.81640625 C-0.92125 1.21699219 -0.4675 0.61757812 0 0 Z " fill="#219C3F" transform="translate(65,6)"/>
</svg>
