<?xml version="1.0" encoding="UTF-8"?>
<svg version="1.1" xmlns="http://www.w3.org/2000/svg" width="709" height="284">
<path d="M0 0 C10.56 0 21.12 0 32 0 C36.49928436 10.1233898 36.49928436 10.1233898 38.13476562 14.91186523 C38.50194702 15.9800499 38.86912842 17.04823456 39.24743652 18.14878845 C39.62984497 19.2740242 40.01225342 20.39925995 40.40625 21.55859375 C41.01611755 23.33509056 41.01611755 23.33509056 41.63830566 25.1474762 C42.71140285 28.27436904 43.78130119 31.40232848 44.84918213 34.53100586 C46.34998463 38.92742965 47.85412021 43.32270527 49.36169434 47.71681213 C50.16125081 50.04773949 50.95835412 52.37951033 51.75256348 54.71226501 C53.98408173 61.22323671 56.36964247 67.63930811 59 74 C59.25467041 73.27562744 59.50934082 72.55125488 59.77172852 71.80493164 C65.78430323 54.72709814 71.90629014 37.69139036 78.125 20.6875 C78.46000519 19.7703421 78.79501038 18.8531842 79.14016724 17.90823364 C80.09460403 15.29636358 81.05083562 12.68515906 82.0078125 10.07421875 C82.29588272 9.28600739 82.58395294 8.49779602 82.88075256 7.68569946 C84.88430205 2.23139589 84.88430205 2.23139589 86 0 C95.9 0 105.8 0 116 0 C117.54171875 4.42019531 119.0834375 8.84039062 120.671875 13.39453125 C121.65617083 16.21552247 122.6405094 19.03649864 123.625 21.85742188 C125.18335611 26.3226912 126.74156431 30.78801171 128.29882812 35.25366211 C129.55607979 38.85895769 130.81404771 42.46400265 132.07248688 46.0688839 C132.54950067 47.43570976 133.0262679 48.80262171 133.50276947 50.16962624 C136.27909016 58.13384173 139.0916619 66.08286452 142 74 C148.8969938 55.29694527 155.69398889 36.56022352 162.40283203 17.78881836 C162.69396378 16.97521851 162.98509552 16.16161865 163.28504944 15.32336426 C163.83083056 13.79794437 164.37583573 12.27224654 164.91990662 10.74621582 C166.21373364 7.13093493 167.5732153 3.56696175 169 0 C179.23 0 189.46 0 200 0 C196.62450282 11.25165727 196.62450282 11.25165727 195.21679688 15.17529297 C194.73752243 16.51679916 194.73752243 16.51679916 194.24856567 17.88540649 C193.9087265 18.82814423 193.56888733 19.77088196 193.21875 20.7421875 C192.85240448 21.76460541 192.48605896 22.78702332 192.10861206 23.84042358 C190.90861918 27.18632379 189.7045545 30.53073955 188.5 33.875 C187.66094299 36.20930017 186.82191346 38.54361021 185.98291016 40.87792969 C180.23494812 56.85559216 174.45401171 72.82138974 168.64086914 88.77545166 C167.79712311 91.09135958 166.95418649 93.40756254 166.11206055 95.72406006 C164.93962439 98.94732953 163.76341568 102.16919456 162.5859375 105.390625 C162.23578583 106.35471283 161.88563416 107.31880066 161.52487183 108.31210327 C161.2051944 109.18396271 160.88551697 110.05582214 160.55615234 110.95410156 C160.27814789 111.71579651 160.00014343 112.47749146 159.7137146 113.26226807 C159 115 159 115 158 116 C155.6243148 116.0883967 153.27791326 116.11530305 150.90234375 116.09765625 C149.83905602 116.09553383 149.83905602 116.09553383 148.75428772 116.09336853 C146.48198288 116.08775443 144.20977525 116.07519963 141.9375 116.0625 C140.40039204 116.05748681 138.86328255 116.05292359 137.32617188 116.04882812 C133.55074358 116.03778042 129.77538829 116.02050641 126 116 C123.12657575 109.75915931 120.60984197 103.45186222 118.28515625 96.98828125 C117.94753769 96.05759323 117.60991913 95.12690521 117.2620697 94.16801453 C116.19250538 91.21726704 115.12745912 88.26491224 114.0625 85.3125 C113.35250447 83.35210815 112.64222025 81.39182083 111.93164062 79.43164062 C106.54269948 64.55264959 106.54269948 64.55264959 104.41748047 58.52099609 C104.06779457 57.5306562 104.06779457 57.5306562 103.71104431 56.52030945 C103.10734902 54.80638746 102.50748503 53.09111726 101.90795898 51.37573242 C101.21558853 49.07956276 101.21558853 49.07956276 100 48 C97.56388036 54.48773065 95.12869156 60.97581018 92.6940918 67.46411133 C91.86910107 69.66243031 91.04391217 71.86067492 90.21850586 74.05883789 C89.01882133 77.25386398 87.8198131 80.44914292 86.62109375 83.64453125 C86.22900726 84.68908478 85.83692078 85.73363831 85.43295288 86.80984497 C83.56519032 91.79309094 81.70919179 96.78005427 79.88330078 101.77880859 C79.55894547 102.66614182 79.23459015 103.55347504 78.90040588 104.46769714 C78.29653816 106.12358843 77.69512063 107.78037597 77.09654236 109.43818665 C75.10927264 114.89072736 75.10927264 114.89072736 74 116 C69.47705863 116.29045063 64.94854589 116.3139741 60.41748047 116.35009766 C58.89258569 116.36666201 57.3677687 116.39395914 55.84326172 116.43212891 C53.64770142 116.48683951 51.45396216 116.50875899 49.2578125 116.5234375 C47.9392627 116.54325684 46.62071289 116.56307617 45.26220703 116.58349609 C42 116 42 116 40.28051758 114.1015625 C38.47389112 109.7257031 36.8220149 105.31835024 35.25390625 100.8515625 C34.70842133 99.31976349 34.70842133 99.31976349 34.1519165 97.75701904 C32.95066678 94.38135608 31.75662852 91.00318791 30.5625 87.625 C28.86212476 82.83756169 27.1578629 78.05151133 25.453125 73.265625 C25.01269363 72.02779266 24.57226227 70.78996033 24.1184845 69.51461792 C20.88872216 60.44660874 17.6054085 51.39891102 14.296875 42.359375 C13.8304941 41.0839839 13.36413953 39.80858318 12.89781189 38.53317261 C11.09021927 33.59102931 9.28142894 28.64934304 7.46414185 23.71075439 C6.20768572 20.29563057 4.9568891 16.8784805 3.70703125 13.4609375 C3.14124359 11.93179718 3.14124359 11.93179718 2.56402588 10.37176514 C2.2242572 9.44003479 1.88448853 8.50830444 1.53442383 7.54833984 C1.23643387 6.73779144 0.93844391 5.92724304 0.63142395 5.09213257 C0 3 0 3 0 0 Z " fill="#F9F9F9" transform="translate(408,72)"/>
<path d="M0 0 C-3.34569321 9.16329035 -6.78264222 18.19206693 -11 27 C-14.98921252 25.72321664 -18.79581231 24.25557059 -22.625 22.5625 C-32.76569452 18.38764647 -41.66977145 16.71324004 -52.625 16.5625 C-53.59091064 16.54018311 -54.55682129 16.51786621 -55.55200195 16.49487305 C-62.50861166 16.51682942 -67.72011853 18.11060605 -74 21 C-74.99 21.33 -75.98 21.66 -77 22 C-79.46050681 26.14401147 -79.94725308 31.31189999 -79 36 C-71.98439771 46.21327165 -56.89297346 47.76481575 -45.5 50.5 C-9.06769945 59.24653617 -9.06769945 59.24653617 1 74 C6.50141601 84.18097415 7.56690187 95.12072203 5.31640625 106.4375 C3.32218315 112.92493115 0.49915269 117.95082865 -4 123 C-4.45503906 123.58136719 -4.91007812 124.16273438 -5.37890625 124.76171875 C-14.88526965 135.80697126 -32.03529017 140.75513046 -46 142 C-69.93250559 143.21750347 -98.21374338 141.27425043 -118 126 C-119.30543408 122.08369777 -118.36865443 120.95084183 -116.69140625 117.23828125 C-116.19189453 116.12001953 -115.69238281 115.00175781 -115.17773438 113.84960938 C-114.64470703 112.68236328 -114.11167969 111.51511719 -113.5625 110.3125 C-113.03333984 109.13365234 -112.50417969 107.95480469 -111.95898438 106.74023438 C-110.64791743 103.82281513 -109.32796239 100.90975811 -108 98 C-104.57695866 98.75314389 -101.76900441 100.08879154 -98.66943359 101.73022461 C-85.5595006 108.67031691 -72.62753692 112.1653483 -57.75 112.25 C-56.85925781 112.270625 -55.96851563 112.29125 -55.05078125 112.3125 C-47.46532005 112.35653751 -40.70649906 111.00768699 -34 107.375 C-31.16207254 104.00496114 -29.94275285 100.4223425 -30 96 C-32.49741466 89.75775147 -35.43498174 88.13997628 -41.34423828 85.41064453 C-48.20253844 82.76424021 -55.29274427 81.11812671 -62.4375 79.4375 C-100.58443635 70.35373279 -100.58443635 70.35373279 -111 55 C-116.93967812 44.1560005 -117.7398252 32.16095072 -114.4375 20.25 C-110.09453682 7.79613695 -101.68714717 -0.88409117 -89.9375 -6.75 C-62.86506571 -17.7961523 -24.53829206 -17.47881419 0 0 Z " fill="#F9F9F9" transform="translate(175,48)"/>
<path d="M0 0 C9.46418446 7.58566013 14.02930466 18.65024069 15.69140625 30.40625 C15.77696049 32.99927832 15.8182741 35.56379243 15.80493164 38.15576172 C15.80507767 38.90766281 15.80522369 39.6595639 15.80537415 40.43424988 C15.80468153 42.90150918 15.79691983 45.3686915 15.7890625 47.8359375 C15.787196 49.55372069 15.78577319 51.27150442 15.78477478 52.98928833 C15.78096784 57.49704473 15.77115321 62.0047686 15.7600708 66.51251221 C15.7498174 71.117712 15.74526876 75.72291707 15.74023438 80.328125 C15.72952923 89.35418321 15.71194727 98.3802088 15.69140625 107.40625 C5.13140625 107.40625 -5.42859375 107.40625 -16.30859375 107.40625 C-16.63859375 103.77625 -16.96859375 100.14625 -17.30859375 96.40625 C-18.42234375 97.47875 -19.53609375 98.55125 -20.68359375 99.65625 C-31.54765675 109.18883814 -45.05691897 109.07042136 -58.75195312 108.58544922 C-69.88663515 107.80500073 -79.33251837 102.66525804 -87.12109375 94.84375 C-92.51368229 88.29739833 -95.08303417 79.03928757 -94.6328125 70.59375 C-93.17656442 60.76846172 -89.34319045 53.47641242 -81.69921875 47.078125 C-68.12837073 37.58740122 -51.86861635 38.11995429 -36.05859375 38.28125 C-34.33073438 38.29130512 -32.60286932 38.30042647 -30.875 38.30859375 C-26.68605452 38.33039461 -22.49738881 38.3647831 -18.30859375 38.40625 C-18.74370866 36.81914897 -19.18990349 35.23508339 -19.640625 33.65234375 C-19.8878833 32.7698999 -20.1351416 31.88745605 -20.38989258 30.97827148 C-22.01434375 26.43041256 -24.61450886 22.74822545 -28.99609375 20.56567383 C-34.01290675 18.47966418 -38.53203501 17.89489364 -43.93359375 17.96875 C-44.7126709 17.97559814 -45.49174805 17.98244629 -46.29443359 17.98950195 C-56.20927962 18.26001737 -65.65199023 20.48608953 -73.7578125 26.453125 C-75.30859375 27.40625 -75.30859375 27.40625 -78.30859375 27.40625 C-80.15536729 23.99668454 -81.9836154 20.5775239 -83.80859375 17.15625 C-84.33324219 16.18816406 -84.85789062 15.22007813 -85.3984375 14.22265625 C-85.89472656 13.28808594 -86.39101563 12.35351562 -86.90234375 11.390625 C-87.36318359 10.53178711 -87.82402344 9.67294922 -88.29882812 8.78808594 C-89.30859375 6.40625 -89.30859375 6.40625 -89.30859375 2.40625 C-62.67461698 -12.18576919 -26.53529733 -18.31878394 0 0 Z M-58.74609375 64.59375 C-60.781274 68.25707444 -61.08650573 71.35793255 -60.30859375 75.40625 C-57.89127302 80.33386534 -55.48554947 82.61784712 -50.30859375 84.40625 C-41.23875926 86.24878331 -33.28325159 85.2000727 -25.43359375 80.15625 C-22.08886652 77.48363107 -19.5599431 74.54662388 -18.30859375 70.40625 C-18.12040013 67.59404299 -18.12040013 67.59404299 -18.2109375 64.6640625 C-18.22503662 63.67809082 -18.23913574 62.69211914 -18.25366211 61.67626953 C-18.27178955 60.92716309 -18.28991699 60.17805664 -18.30859375 59.40625 C-22.59526111 59.33162272 -26.88157582 59.27742492 -31.16870117 59.24145508 C-32.62449743 59.22644687 -34.08024907 59.20603367 -35.53588867 59.17993164 C-37.63862164 59.14319324 -39.7407526 59.1264444 -41.84375 59.11328125 C-43.10582275 59.0975708 -44.36789551 59.08186035 -45.66821289 59.06567383 C-50.90137528 59.55526283 -54.77017039 61.02561365 -58.74609375 64.59375 Z " fill="#F9F9F9" transform="translate(380.30859375,80.59375)"/>
<path d="M0 0 C11.55 0 23.1 0 35 0 C35 9.24 35 18.48 35 28 C44.24 28 53.48 28 63 28 C63 36.91 63 45.82 63 55 C53.76 55 44.52 55 35 55 C35.05106144 62.29668013 35.11401846 69.59123177 35.20751953 76.88720703 C35.23571696 79.36825681 35.25693755 81.84939622 35.27099609 84.33056641 C35.29244162 87.90053147 35.33910342 91.46942028 35.390625 95.0390625 C35.39185364 96.14553131 35.39308228 97.25200012 35.39434814 98.39199829 C35.5105406 104.52390965 35.81459668 108.37251771 40 113 C45.07099871 115.57108531 50.12080488 115.25192428 55.4375 113.625 C56.24058594 113.32851562 57.04367187 113.03203125 57.87109375 112.7265625 C60 112 60 112 63 112 C64.37218673 115.40970319 65.71953606 118.82869286 67.0625 122.25 C67.64741211 123.70212891 67.64741211 123.70212891 68.24414062 125.18359375 C68.60830078 126.11816406 68.97246094 127.05273438 69.34765625 128.015625 C69.68804932 128.87446289 70.02844238 129.73330078 70.37915039 130.61816406 C71.05856537 133.22468098 70.98745069 134.51693284 70 137 C68.43359375 138.1953125 68.43359375 138.1953125 66.4375 139.125 C65.79683594 139.43695313 65.15617187 139.74890625 64.49609375 140.0703125 C51.6073398 144.87081867 35.65378345 145.03927175 22.73046875 140.2578125 C12.73726364 135.65436179 6.6167187 129.71726494 2.6875 119.375 C0.7402904 113.77163735 -0.12771017 108.38284965 -0.11352539 102.45361328 C-0.11344986 101.39296661 -0.11337433 100.33231995 -0.11329651 99.23953247 C-0.10813522 98.11118988 -0.10297394 96.98284729 -0.09765625 95.8203125 C-0.0962413 94.6524118 -0.09482635 93.48451111 -0.09336853 92.28121948 C-0.08778498 88.56245326 -0.07523544 84.84374793 -0.0625 81.125 C-0.05748288 78.5989592 -0.05292034 76.07291746 -0.04882812 73.546875 C-0.03782093 67.36455998 -0.02056755 61.18229031 0 55 C-5.94 55 -11.88 55 -18 55 C-18.02682299 50.68745917 -18.04675244 46.37508293 -18.0625 42.0625 C-18.07087891 40.83080078 -18.07925781 39.59910156 -18.08789062 38.33007812 C-18.09111328 37.16025391 -18.09433594 35.99042969 -18.09765625 34.78515625 C-18.10289307 33.70113525 -18.10812988 32.61711426 -18.11352539 31.50024414 C-18 29 -18 29 -17 28 C-14.13530675 27.92669669 -11.30106326 27.90782169 -8.4375 27.9375 C-5.653125 27.958125 -2.86875 27.97875 0 28 C0 18.76 0 9.52 0 0 Z " fill="#F9F9F9" transform="translate(205,46)"/>
<path d="M0 0 C11.55 0 23.1 0 35 0 C35.02254768 14.97686593 35.04097956 29.95372321 35.05181217 44.93060207 C35.05697496 51.88416081 35.06401734 58.83770827 35.07543945 65.79125977 C35.08644694 72.49557209 35.09227621 79.19987025 35.09487724 85.90419197 C35.09673202 88.46837613 35.10035364 91.03255962 35.10573006 93.59673882 C35.11293659 97.17445158 35.11399111 100.75211519 35.11352539 104.32983398 C35.11712067 105.40157364 35.12071594 106.47331329 35.12442017 107.57752991 C35.1230455 108.54653229 35.12167084 109.51553467 35.12025452 110.51390076 C35.12117631 111.36102851 35.1220981 112.20815626 35.12304783 113.08095455 C35 115 35 115 34 116 C31.56339554 116.10082764 29.15575299 116.13972603 26.71875 116.1328125 C25.99006714 116.13376923 25.26138428 116.13472595 24.51062012 116.13571167 C22.9672029 116.13639335 21.42378283 116.13453988 19.88037109 116.13037109 C17.510026 116.12502262 15.13987041 116.13031642 12.76953125 116.13671875 C11.27343708 116.13605797 9.77734303 116.1347768 8.28125 116.1328125 C7.21094543 116.13584885 7.21094543 116.13584885 6.11901855 116.13894653 C1.11495191 116.11495191 1.11495191 116.11495191 0 115 C-0.09571971 113.50716202 -0.12188227 112.00980345 -0.12025452 110.51390076 C-0.12162918 109.54489838 -0.12300385 108.575896 -0.12442017 107.57752991 C-0.12082489 106.50579025 -0.11722961 105.4340506 -0.11352539 104.32983398 C-0.11367142 103.20802734 -0.11381744 102.0862207 -0.1139679 100.93041992 C-0.1132682 97.20229189 -0.10547315 93.47421311 -0.09765625 89.74609375 C-0.09579227 87.16919482 -0.09436827 84.59229553 -0.09336853 82.01539612 C-0.08993342 75.91324885 -0.0820426 69.81112206 -0.07201904 63.70898253 C-0.06085689 56.7635075 -0.0553472 49.81803165 -0.05032361 42.87254989 C-0.03985996 28.58168876 -0.02151489 14.29084866 0 0 Z " fill="#21953B" transform="translate(622,72)"/>
<path d="M0 0 C0.66 0.33 1.32 0.66 2 1 C5.94181101 12.98816834 6.4544595 23.46589371 1.109375 34.90625 C-2.44878656 40.96043535 -8.60122541 43.65879199 -15 46 C-18.35326362 46.66280373 -21.58414742 46.98488561 -25 47 C-25.52526388 38.59577796 -24.34240928 32.51038965 -18.8125 26 C-17.88585431 24.98993366 -16.95215793 23.98605352 -16 23 C-20.68980485 25.00991636 -22.64195226 27.94504109 -24.9296875 32.3046875 C-26.81028269 37.0404929 -27.42871837 41.96078445 -28 47 C-28.66 47 -29.32 47 -30 47 C-35.5352553 33.33483849 -35.5352553 33.33483849 -33.26953125 26.9375 C-29.26910208 18.05491442 -21.41140598 14.99660334 -13.03710938 10.97460938 C-7.31443465 8.09291467 -3.87228922 5.11897745 0 0 Z " fill="#209C3F" transform="translate(662,12)"/>
<path d="M0 0 C0.33 -0.99 0.66 -1.98 1 -3 C2.98 -3 4.96 -3 7 -3 C7.07468636 1.55318701 7.12885256 6.10600998 7.16479492 10.65966797 C7.1797933 12.20562968 7.20019887 13.75154948 7.22631836 15.29736328 C7.49179529 31.42378553 7.49179529 31.42378553 4 38 C-0.24216794 42.24216794 -3.90345628 43.1382826 -9.75 43.25 C-15.52797792 43.20726348 -19.84396305 41.57801847 -25 39 C-24.67 37.35 -24.34 35.7 -24 34 C-21.37142518 34.45061283 -19.11959608 34.94505045 -16.6875 36.0625 C-11.97370803 37.70684604 -7.77365521 37.60379752 -3.0625 36 C0.0732688 32.95925449 -0.21109456 30.29225612 0 26 C-0.474375 26.474375 -0.94875 26.94875 -1.4375 27.4375 C-5.70823479 30.04160658 -10.28446787 30.54310643 -15.1875 29.5625 C-19.82276137 28.01741288 -22.84956362 25.81871077 -26 22 C-28.02254474 15.93236578 -28.0501294 9.21693984 -25.3125 3.4375 C-17.93270679 -4.34120096 -9.26857115 -4.53970832 0 0 Z M-20 6 C-22.38941052 9.68850751 -22.25819246 12.57175211 -21.671875 16.80859375 C-20.48210782 20.68917159 -18.42195262 21.894183 -15 24 C-10.81680061 25.56869977 -8.02762439 24.79957685 -4 23 C-0.2936686 19.7945242 0.90721694 18.13195331 1.3125 13.1875 C1.26629919 10.00541933 0.99370282 8.98927147 -0.6875 6.125 C-3.78096276 3.28235855 -6.26309072 2.27424883 -10.375 1.625 C-14.06985339 2.1528362 -17.10581875 3.63799817 -20 6 Z " fill="#F9F9F9" transform="translate(323,232)"/>
<path d="M0 0 C0.66 -0.99 1.32 -1.98 2 -3 C4.625 -3.1875 4.625 -3.1875 7 -3 C7.04971951 1.57151738 7.08586976 6.14287468 7.10986328 10.71459961 C7.11987381 12.26736191 7.13348634 13.82010558 7.15087891 15.37280273 C7.17534652 17.61446755 7.18653268 19.85588149 7.1953125 22.09765625 C7.20563507 22.78336197 7.21595764 23.46906769 7.22659302 24.17555237 C7.22775637 29.25950645 6.86835521 34.61918165 3.6328125 38.7421875 C-2.36049721 43.24493314 -7.65220582 43.64898182 -15 43 C-18.52049862 42.04993166 -21.73709186 40.63145407 -25 39 C-24.67 37.35 -24.34 35.7 -24 34 C-21.37142518 34.45061283 -19.11959608 34.94505045 -16.6875 36.0625 C-12.00301404 37.69662301 -7.80102803 37.62644453 -3.125 36 C0.03428456 33.02655571 0.23752844 30.22825138 1 26 C0.360625 26.474375 -0.27875 26.94875 -0.9375 27.4375 C-6.2437879 30.14478974 -11.52780913 30.76557232 -17.25 28.9375 C-21.9394846 26.91568628 -24.7202885 23.55942301 -27 19 C-27.72156957 11.86710737 -27.42959784 6.74650531 -23 1 C-15.60731719 -4.54451211 -7.98493913 -3.9109906 0 0 Z M-19 5 C-21.41259871 8.34650788 -22.26189069 10.99799745 -22.0625 15.0625 C-21.51708401 18.19114999 -20.61674118 19.82149884 -18.25 21.9375 C-14.01028348 24.62808933 -11.91546558 25.39905533 -7 24.375 C-3.30790399 22.68278933 -1.3933189 21.30841142 1 18 C1.9492431 13.4518874 1.62959383 10.09595963 -0.6875 6.0625 C-3.81417259 3.27384607 -6.30505889 2.21730014 -10.4375 1.6875 C-13.89712204 2.10940513 -16.07779044 3.09421115 -19 5 Z " fill="#F9F9F9" transform="translate(458,232)"/>
<path d="M0 0 C1.65 0 3.3 0 5 0 C8.89923788 7.2208109 14 16.66907913 14 25 C14.66 25 15.32 25 16 25 C16.23783203 24.16082031 16.23783203 24.16082031 16.48046875 23.3046875 C22.54875283 2.45124717 22.54875283 2.45124717 25 0 C26.65 0 28.3 0 30 0 C32.97 7.92 35.94 15.84 39 24 C41.51874815 18.33281666 43.97576924 12.69849781 46.25 6.9375 C46.518125 6.26267578 46.78625 5.58785156 47.0625 4.89257812 C47.70996085 3.2623642 48.35522591 1.63127845 49 0 C50.65 0 52.3 0 54 0 C53.39418377 4.55115672 52.19603012 8.45132684 50.49609375 12.7109375 C50.13198143 13.63043686 50.13198143 13.63043686 49.76051331 14.56851196 C48.99171749 16.50626774 48.21476724 18.44062889 47.4375 20.375 C46.91156482 21.69639797 46.3861688 23.01801067 45.86132812 24.33984375 C44.58044219 27.56240178 43.29222716 30.7819703 42 34 C40.35 34 38.7 34 37 34 C28 14.93032787 28 14.93032787 28 10 C27.34 10 26.68 10 26 10 C25.90847656 10.79664063 25.81695312 11.59328125 25.72265625 12.4140625 C24.80366698 16.97423628 23.17100189 21.07042303 21.4375 25.375 C21.10814453 26.20644531 20.77878906 27.03789062 20.43945312 27.89453125 C19.63155238 29.93184618 18.8182989 31.96684442 18 34 C16.02 34 14.04 34 12 34 C10.28682815 29.48090174 8.57794287 24.96021524 6.87304688 20.43798828 C6.29219847 18.89912983 5.7101717 17.36071564 5.12695312 15.82275391 C4.28987971 13.61475923 3.45702756 11.40521269 2.625 9.1953125 C2.23127197 8.16085495 2.23127197 8.16085495 1.82958984 7.10549927 C0 2.22774341 0 2.22774341 0 0 Z " fill="#F9F9F9" transform="translate(170,229)"/>
<path d="M0 0 C0.7425 0.61875 1.485 1.2375 2.25 1.875 C1.59 3.195 0.93 4.515 0.25 5.875 C-2.75 5.875 -2.75 5.875 -5.25 4.375 C-10.7608046 2.0132266 -16.45781739 1.61209716 -22.1328125 3.7890625 C-26.57576934 6.33023708 -29.20838091 8.86473794 -30.75 13.875 C-31.46763739 19.57509128 -31.06044446 24.01968146 -27.75 28.875 C-23.53029007 33.23654892 -20.32645112 34.73186383 -14.375 35.0625 C-10.27124371 35.01186044 -10.27124371 35.01186044 -4.75 32.875 C-4.42 27.925 -4.09 22.975 -3.75 17.875 C-1.77 17.875 0.21 17.875 2.25 17.875 C2.25 23.815 2.25 29.755 2.25 35.875 C-5.54466373 40.52853059 -11.67287866 42.22264624 -20.75 40.875 C-27.82060271 38.84232329 -31.8454788 35.34459786 -35.69140625 29.15625 C-38.63003169 22.82356639 -38.47299539 16.31737149 -36.1875 9.8125 C-33.62880703 3.85128978 -29.89685607 0.48680433 -24.1875 -2.4375 C-16.23598799 -4.68023416 -7.11549172 -4.7606028 0 0 Z " fill="#F9F9F9" transform="translate(90.75,222.125)"/>
<path d="M0 0 C3.86599248 2.15027101 5.89308913 4.30584896 7.8125 8.375 C8.3075 12.83 8.3075 12.83 8.8125 17.375 C-0.0975 17.375 -9.0075 17.375 -18.1875 17.375 C-15.04900333 23.87478352 -15.04900333 23.87478352 -12.375 25.8125 C-6.35554485 27.3603599 -2.543437 26.17469434 2.8125 23.375 C3.8025 23.705 4.7925 24.035 5.8125 24.375 C6.1425 25.365 6.4725 26.355 6.8125 27.375 C1.62252723 31.72335556 -1.89573138 32.73978236 -8.55078125 32.65234375 C-14.12471806 32.06604817 -17.85530709 29.80966928 -21.625 25.75 C-24.31659168 19.93616196 -25.07495111 14.16385025 -23.0625 8 C-21.06749291 3.50216584 -18.10780885 1.38568887 -13.8125 -0.875 C-8.79709196 -2.30797372 -4.74104451 -2.1149641 0 0 Z M-17 8.375 C-18.44276938 10.417265 -18.44276938 10.417265 -18.1875 13.375 C-11.2575 13.375 -4.3275 13.375 2.8125 13.375 C1.78195045 7.78861899 1.78195045 7.78861899 -2.1875 4.375 C-8.48120084 2.43948949 -12.51106579 3.42169328 -17 8.375 Z " fill="#F9F9F9" transform="translate(500.1875,230.625)"/>
<path d="M0 0 C5.22931663 0.43577639 9.54812437 1.87625106 13.14453125 5.85546875 C16.29712337 10.7236057 15.75 12.70650455 15.75 19.3125 C7.17 19.3125 -1.41 19.3125 -10.25 19.3125 C-7.46091615 25.47906173 -7.46091615 25.47906173 -2.25 28.3125 C1.77903703 28.74418254 3.94113356 28.80158203 7.4375 26.6875 C8.200625 26.23375 8.96375 25.78 9.75 25.3125 C12.0625 26.125 12.0625 26.125 13.75 27.3125 C13.75 28.3025 13.75 29.2925 13.75 30.3125 C7.6064676 33.95311179 2.89336716 35.28495839 -4.25 34.3125 C-9.53097404 32.51896165 -12.04895251 29.70250798 -15.25 25.3125 C-17.04973286 19.91330143 -16.95112627 14.37692735 -15.125 9 C-12.50805373 5.24904368 -9.6227756 2.30753493 -5.3125 0.5 C-3.54114541 0.33896776 -1.77049341 0.17023975 0 0 Z M-8.25 8.3125 C-10.61980013 11.26627498 -10.61980013 11.26627498 -10.25 15.3125 C-3.32 15.3125 3.61 15.3125 10.75 15.3125 C8.67354295 9.08312886 8.26111051 8.12208575 2.75 5.3125 C-1.61527363 4.54857711 -4.51931896 6.07409138 -8.25 8.3125 Z " fill="#F9F9F9" transform="translate(607.25,228.6875)"/>
<path d="M0 0 C1.65 0 3.3 0 5 0 C5.33 5.61 5.66 11.22 6 17 C7.32 16.01 8.64 15.02 10 14 C14.92907231 12.3569759 18.81098662 12.6234791 23.75 14.1875 C27.76900043 16.42886562 29.22785047 18.48875991 30.56420898 22.83496094 C31.06870627 25.34133734 31.11252044 27.64648451 31.09765625 30.203125 C31.09443359 31.1828125 31.09121094 32.1625 31.08789062 33.171875 C31.07951172 34.18765625 31.07113281 35.2034375 31.0625 36.25 C31.05798828 37.28125 31.05347656 38.3125 31.04882812 39.375 C31.03706088 41.91672573 31.02062011 44.45833319 31 47 C29.02 47 27.04 47 25 47 C24.98541748 46.32420898 24.97083496 45.64841797 24.95581055 44.95214844 C24.88124589 41.88419478 24.78461345 38.81731924 24.6875 35.75 C24.66494141 34.68652344 24.64238281 33.62304688 24.61914062 32.52734375 C24.5659668 30.99013672 24.5659668 30.99013672 24.51171875 29.421875 C24.48553467 28.47924805 24.45935059 27.53662109 24.43237305 26.56542969 C23.92622604 23.56227172 23.11499219 22.17140431 21 20 C16.9903683 18.86519858 14.6655479 18.78652237 10.6875 20.0625 C7.24960608 22.54098166 7.02001536 23.90621638 6 28 C5.64017038 31.28800062 5.49443961 34.57050426 5.375 37.875 C5.33632813 38.75414062 5.29765625 39.63328125 5.2578125 40.5390625 C5.16418966 42.69238793 5.08103541 44.84616414 5 47 C3.35 47 1.7 47 0 47 C0 31.49 0 15.98 0 0 Z " fill="#F9F9F9" transform="translate(549,216)"/>
<path d="M0 0 C3.59885613 2.42531609 5.44387076 5.15192478 6.796875 9.2109375 C7.30129739 14.4784303 7.4685409 18.84272918 5.109375 23.6484375 C1.40997751 27.74776985 -1.76023145 30.78286903 -7.40234375 31.484375 C-13.98837462 31.75319259 -18.18878193 30.56232656 -23.203125 26.2109375 C-26.68335567 22.1693793 -27.34248558 17.4282491 -27.203125 12.2109375 C-26.08579384 6.63425785 -23.70517577 2.77069858 -19.203125 -0.7890625 C-12.36018396 -3.91301384 -6.49078448 -3.54728919 0 0 Z M-18.203125 5.2109375 C-21.15211802 9.53612726 -21.8506724 13.03055829 -21.203125 18.2109375 C-19.5749304 21.29287728 -18.17303438 23.47514417 -15.390625 25.5859375 C-12.09336617 26.52801145 -9.6218651 26.62354406 -6.203125 26.2109375 C-2.98488857 24.08568702 -0.83967367 22.1657605 1.296875 18.9609375 C2.23136021 13.82126885 1.00020184 9.06220956 -1.828125 4.7109375 C-7.45057829 1.15991437 -12.89024546 1.38072202 -18.203125 5.2109375 Z " fill="#F9F9F9" transform="translate(158.203125,231.7890625)"/>
<path d="M0 0 C4.4038723 4.25631987 6.1675979 7.60923809 6.3125 13.6875 C6.23624476 19.47596623 5.72343108 22.5318827 2 27 C-2.5111994 30.41140361 -7.13817986 31.67999382 -12.76171875 31.37890625 C-18.33476608 30.4354759 -21.89256762 28.32891885 -25.5 24 C-27.93146853 18.97424138 -27.74700626 13.42522727 -27 8 C-24.66551393 3.15810296 -21.21743545 -0.71302582 -16.125 -2.75 C-9.9342312 -3.47832574 -5.52114158 -3.06730088 0 0 Z M-19.58203125 6.33984375 C-22.18338815 9.38550954 -22.10605572 13.12233784 -22 17 C-20.78193517 20.65419449 -19.69576467 22.42019611 -16.75 24.875 C-12.29774364 26.6963776 -8.70225636 26.6963776 -4.25 24.875 C-1.30423533 22.42019611 -0.21806483 20.65419449 1 17 C1.28657845 12.2208829 0.66557758 8.96811285 -2.0625 5 C-8.49014216 0.623733 -13.73129533 1.38477605 -19.58203125 6.33984375 Z " fill="#F9F9F9" transform="translate(416,232)"/>
<path d="M0 0 C1.2065625 0.0309375 1.2065625 0.0309375 2.4375 0.0625 C2.7675 1.0525 3.0975 2.0425 3.4375 3.0625 C4.448125 2.5675 5.45875 2.0725 6.5 1.5625 C11.52768389 -0.56615649 15.57202156 -0.69086629 20.6875 1.375 C24.40771185 3.65785727 26.04921208 4.89763623 27.4375 9.0625 C27.52016486 10.98156917 27.54490663 12.90339474 27.53515625 14.82421875 C27.53193359 15.94248047 27.52871094 17.06074219 27.52539062 18.21289062 C27.51701172 19.38013672 27.50863281 20.54738281 27.5 21.75 C27.49548828 22.92884766 27.49097656 24.10769531 27.48632812 25.32226562 C27.47453273 28.23572789 27.4580727 31.14908863 27.4375 34.0625 C25.7875 34.0625 24.1375 34.0625 22.4375 34.0625 C22.42291748 33.45776855 22.40833496 32.85303711 22.39331055 32.22998047 C22.31840812 29.46520735 22.22188927 26.70158643 22.125 23.9375 C22.10244141 22.98617187 22.07988281 22.03484375 22.05664062 21.0546875 C21.854089 15.75151773 21.57168377 11.55777296 18.4375 7.0625 C14.34415693 5.7495409 12.17166338 5.79930935 8.125 7.25 C5.27229914 9.17391453 4.65087878 9.95343269 3.4375 13.0625 C3.07570497 15.47429904 3.07570497 15.47429904 3.0234375 18.046875 C2.98476563 18.98144531 2.94609375 19.91601562 2.90625 20.87890625 C2.8753125 21.84699219 2.844375 22.81507813 2.8125 23.8125 C2.77382813 24.79605469 2.73515625 25.77960938 2.6953125 26.79296875 C2.60121574 29.21596037 2.51557672 31.63894796 2.4375 34.0625 C0.77138095 34.105221 -0.89632885 34.10313832 -2.5625 34.0625 C-4.23923649 32.38576351 -3.69037817 30.33394924 -3.70144653 28.09594727 C-3.6994223 27.40428467 -3.69739807 26.71262207 -3.6953125 26 C-3.69626923 25.29351318 -3.69722595 24.58702637 -3.69821167 23.85913086 C-3.69889333 22.36279207 -3.69704005 20.86645033 -3.69287109 19.37011719 C-3.68752257 17.07219843 -3.69281651 14.77447514 -3.69921875 12.4765625 C-3.69855797 11.02604123 -3.6972768 9.57552009 -3.6953125 8.125 C-3.69733673 7.4333374 -3.69936096 6.7416748 -3.70144653 6.02905273 C-3.67207192 0.08956273 -3.67207192 0.08956273 0 0 Z " fill="#F9F9F9" transform="translate(256.5625,228.9375)"/>
<path d="M0 0 C1.67542976 0.28604898 3.34385343 0.61781233 5 1 C5 2.98 5 4.96 5 7 C7.97 7 10.94 7 14 7 C14 8.65 14 10.3 14 12 C11.03 12 8.06 12 5 12 C5.13816959 15.64616671 5.28681534 19.29183074 5.4375 22.9375 C5.47681641 23.97841797 5.51613281 25.01933594 5.55664062 26.09179688 C5.61948242 27.57583008 5.61948242 27.57583008 5.68359375 29.08984375 C5.72025146 30.00628662 5.75690918 30.92272949 5.79467773 31.86694336 C5.77003864 33.9820728 5.77003864 33.9820728 7 35 C9.67058851 35.14115161 12.32432238 35.04247107 15 35 C15.33 36.32 15.66 37.64 16 39 C12.28004984 41.47996677 9.30573798 41.41752611 5 41 C2.33003894 40.1568544 1.38882932 39.62080234 -0.08935547 37.26074219 C-1.18238346 34.54721962 -1.22777104 32.4993933 -1.1953125 29.578125 C-1.18886719 28.55332031 -1.18242188 27.52851563 -1.17578125 26.47265625 C-1.15902344 25.40917969 -1.14226563 24.34570312 -1.125 23.25 C-1.11597656 22.17105469 -1.10695313 21.09210938 -1.09765625 19.98046875 C-1.07411305 17.32008722 -1.04122799 14.66015664 -1 12 C-2.98 12 -4.96 12 -7 12 C-7 10.35 -7 8.7 -7 7 C-5.02 7 -3.04 7 -1 7 C-1.020625 6.030625 -1.04125 5.06125 -1.0625 4.0625 C-1 1 -1 1 0 0 Z " fill="#F9F9F9" transform="translate(522,222)"/>
<path d="M0 0 C1.67542976 0.28604898 3.34385343 0.61781233 5 1 C5 2.98 5 4.96 5 7 C7.97 7 10.94 7 14 7 C14 8.65 14 10.3 14 12 C11.03 12 8.06 12 5 12 C5.13816959 15.64616671 5.28681534 19.29183074 5.4375 22.9375 C5.47681641 23.97841797 5.51613281 25.01933594 5.55664062 26.09179688 C5.61948242 27.57583008 5.61948242 27.57583008 5.68359375 29.08984375 C5.72025146 30.00628662 5.75690918 30.92272949 5.79467773 31.86694336 C5.77003864 33.9820728 5.77003864 33.9820728 7 35 C9.67058851 35.14115161 12.32432238 35.04247107 15 35 C15.33 36.32 15.66 37.64 16 39 C12.31502204 41.45665197 9.28028214 41.70086491 5 41 C2.1899654 39.20636089 0.49059532 37.98119065 -1 35 C-1.08449628 33.2595583 -1.10723024 31.51590278 -1.09765625 29.7734375 C-1.09443359 28.7421875 -1.09121094 27.7109375 -1.08789062 26.6484375 C-1.07951172 25.56820312 -1.07113281 24.48796875 -1.0625 23.375 C-1.05798828 22.28703125 -1.05347656 21.1990625 -1.04882812 20.078125 C-1.03701776 17.38536211 -1.02054778 14.69270812 -1 12 C-2.98 12 -4.96 12 -7 12 C-7 10.35 -7 8.7 -7 7 C-5.02 7 -3.04 7 -1 7 C-1.020625 6.030625 -1.04125 5.06125 -1.0625 4.0625 C-1 1 -1 1 0 0 Z " fill="#F9F9F9" transform="translate(366,222)"/>
<path d="M0 0 C1.65 0 3.3 0 5 0 C5.33 1.32 5.66 2.64 6 4 C6.515625 3.525625 7.03125 3.05125 7.5625 2.5625 C10.66782675 0.57190593 13.36632504 0.34939182 17 0 C17 1.98 17 3.96 17 6 C15.3603125 6.37125 15.3603125 6.37125 13.6875 6.75 C9.76042625 8.08121144 8.99773725 8.55089596 7 12 C6.50142674 14.50359737 6.50142674 14.50359737 6.48828125 17.203125 C6.45283203 18.1828125 6.41738281 19.1625 6.38085938 20.171875 C6.35830078 21.18765625 6.33574219 22.2034375 6.3125 23.25 C6.27833984 24.28125 6.24417969 25.3125 6.20898438 26.375 C6.12661907 28.91655812 6.05743166 31.45777626 6 34 C4.02 34 2.04 34 0 34 C0 22.78 0 11.56 0 0 Z " fill="#F9F9F9" transform="translate(107,229)"/>
<path d="M0 0 C1.65 0 3.3 0 5 0 C5.33 0.99 5.66 1.98 6 3 C7.0725 2.505 8.145 2.01 9.25 1.5 C12.25416808 0.11346089 13.45934895 0 17 0 C17 1.98 17 3.96 17 6 C15.741875 6.185625 14.48375 6.37125 13.1875 6.5625 C10.9754703 6.76178577 10.9754703 6.76178577 9 8 C5.80457261 13.51937458 5.4796853 18.65610935 5.3125 24.9375 C5.27833984 25.81212891 5.24417969 26.68675781 5.20898438 27.58789062 C5.12724343 29.72483254 5.0619287 31.86239218 5 34 C3.35 34 1.7 34 0 34 C0 22.78 0 11.56 0 0 Z " fill="#F9F9F9" transform="translate(635,229)"/>
<path d="M0 0 C1.98 0 3.96 0 6 0 C6 11.22 6 22.44 6 34 C4.02 34 2.04 34 0 34 C0 22.78 0 11.56 0 0 Z " fill="#F9F9F9" transform="translate(233,229)"/>
<path d="M0 0 C1.65 0.33 3.3 0.66 5 1 C5.33 2.65 5.66 4.3 6 6 C4.35 6.66 2.7 7.32 1 8 C0.01 7.01 -0.98 6.02 -2 5 C-1.34 3.35 -0.68 1.7 0 0 Z " fill="#F9F9F9" transform="translate(234,216)"/>
</svg>
