<?xml version="1.0" encoding="UTF-8"?>
<svg version="1.1" xmlns="http://www.w3.org/2000/svg" width="709" height="284">
<path d="M0 0 C8.58 0 17.16 0 26 0 C27.18078125 3.42117187 28.3615625 6.84234375 29.578125 10.3671875 C30.73265625 13.70690652 31.88801731 17.04633738 33.04345703 20.38574219 C33.84152454 22.6937108 34.63873897 25.0019746 35.43505859 27.31054688 C36.58463006 30.64272148 37.73733952 33.97379679 38.890625 37.3046875 C39.24183411 38.32488983 39.59304321 39.34509216 39.95489502 40.39620972 C42.13198412 46.67208847 44.47340412 52.8563971 47 59 C47.2461203 58.31983826 47.4922406 57.63967651 47.74581909 56.93890381 C50.06792581 50.52303028 52.39236187 44.10800502 54.71940422 37.69392014 C55.91561926 34.39650751 57.11093754 31.09877562 58.30419922 27.80029297 C59.67668479 24.00651279 61.05308259 20.2141624 62.4296875 16.421875 C62.85684052 15.23946228 63.28399353 14.05704956 63.72409058 12.83880615 C64.32448654 11.1875473 64.32448654 11.1875473 64.93701172 9.50292969 C65.46329666 8.05064972 65.46329666 8.05064972 66.00021362 6.56903076 C67 4 67 4 69 0 C76.59 0 84.18 0 92 0 C96.49851004 11.24627509 96.49851004 11.24627509 97.9987793 15.52563477 C98.33560226 16.48264786 98.67242523 17.43966095 99.01945496 18.42567444 C99.36752701 19.42086594 99.71559906 20.41605743 100.07421875 21.44140625 C100.83134944 23.59180771 101.58851178 25.74219802 102.34570312 27.89257812 C103.52505158 31.25009835 104.70343997 34.60795287 105.88110352 37.96606445 C107.02642143 41.22952344 108.17515165 44.49176585 109.32421875 47.75390625 C109.67836349 48.76731583 110.03250824 49.7807254 110.39738464 50.82484436 C110.72475113 51.75348801 111.05211761 52.68213165 111.3894043 53.63891602 C111.67712204 54.4592482 111.96483978 55.27958038 112.26127625 56.12477112 C112.84886271 57.98177181 112.84886271 57.98177181 114 59 C114.3282653 58.06824951 114.3282653 58.06824951 114.66316223 57.11767578 C116.94969137 50.6280787 119.23734311 44.13887814 121.52563477 37.64990234 C122.37845951 35.23105774 123.23100201 32.8121136 124.08325195 30.39306641 C125.31126149 26.90761261 126.54029964 23.42252296 127.76953125 19.9375 C128.14777542 18.86322754 128.52601959 17.78895508 128.91572571 16.68212891 C129.27587265 15.6616748 129.63601959 14.6412207 130.00708008 13.58984375 C130.47673943 12.25747681 130.47673943 12.25747681 130.95588684 10.89819336 C132.26920137 7.25276526 133.63947296 3.62807211 135 0 C143.25 0 151.5 0 160 0 C159.26769359 3.66153203 158.48002308 6.73131418 157.2409668 10.20043945 C156.8789769 11.21894485 156.516987 12.23745026 156.14402771 13.28681946 C155.55259727 14.93341805 155.55259727 14.93341805 154.94921875 16.61328125 C154.5386171 17.76422775 154.12801544 18.91517426 153.70497131 20.10099792 C152.59782501 23.20074461 151.4873679 26.29927666 150.37492371 29.39712524 C149.6884741 31.30978586 149.00337896 33.2229262 148.31872559 35.13623047 C141.39096173 54.49351547 134.30331606 73.78074721 127 93 C118.09 93 109.18 93 100 93 C97.0059189 85.81420536 94.07205418 78.71389016 91.44921875 71.40234375 C91.14554886 70.56079239 90.84187897 69.71924103 90.52900696 68.85218811 C89.89824173 67.10099041 89.26902841 65.34923296 88.64135742 63.59692383 C87.67746182 60.90951282 86.70515694 58.22523794 85.73242188 55.54101562 C85.1166801 53.82830733 84.50142735 52.11542313 83.88671875 50.40234375 C83.45089729 49.20242043 83.45089729 49.20242043 83.00627136 47.97825623 C81.89875713 44.86788909 81 42.32788516 81 39 C80.34 39 79.68 39 79 39 C78.80713158 40.08078072 78.80713158 40.08078072 78.61036682 41.18339539 C78.01445909 43.93327695 77.20863982 46.42836635 76.23413086 49.06567383 C75.69368385 50.53663261 75.69368385 50.53663261 75.14231873 52.03730774 C74.75375198 53.0833165 74.36518524 54.12932526 73.96484375 55.20703125 C73.36767296 56.82782845 73.36767296 56.82782845 72.75843811 58.48136902 C71.48825128 61.92636757 70.21294557 65.36944538 68.9375 68.8125 C68.07453156 71.1502658 67.21189737 73.48815501 66.34960938 75.82617188 C64.23757009 81.55246125 62.11861863 87.27612444 60 93 C50.76 93 41.52 93 32 93 C30.94683594 90.01066406 29.89367187 87.02132812 28.80859375 83.94140625 C27.35266262 79.81471542 25.89508013 75.68860864 24.4375 71.5625 C23.87000534 69.95489807 23.87000534 69.95489807 23.29104614 68.31481934 C19.10368785 56.46008866 14.88601524 44.61862234 10.53125 32.82421875 C10.18224136 31.87789078 9.83323273 30.93156281 9.47364807 29.95655823 C7.81607307 25.46686147 6.14996793 20.98055918 4.47241211 16.49829102 C3.87597024 14.88954836 3.27968811 13.28074646 2.68359375 11.671875 C2.40942627 10.94800095 2.13525879 10.22412689 1.8527832 9.47831726 C0.59448162 6.06549869 0 3.69264037 0 0 Z " fill="#101010" transform="translate(393,76)"/>
<path d="M0 0 C-0.63631972 4.92956124 -2.00663931 9.21943001 -3.8125 13.8125 C-4.06064453 14.49248047 -4.30878906 15.17246094 -4.56445312 15.87304688 C-6.44882827 20.6822791 -6.44882827 20.6822791 -8.890625 22.08984375 C-11.69762542 21.97028632 -13.44908101 21.05221024 -15.9375 19.75 C-28.39104294 13.8126535 -42.69741411 11.44016469 -55.96875 16.09375 C-58.76459396 17.34112654 -60.33968788 18.4012506 -62 21 C-63.03148319 24.78210503 -63.47273613 26.9631321 -61.828125 30.5703125 C-55.97809876 38.34534738 -40.72088123 39.6080254 -31.75952148 41.76489258 C-18.39993664 45.03454442 -6.23446698 49.29629028 2 61 C4.73289107 66.27511531 5.52159747 70.49926245 5.4375 76.3125 C5.42847656 77.06015625 5.41945313 77.8078125 5.41015625 78.578125 C5.1184211 87.9298573 2.14536024 94.99094043 -4.3359375 101.82421875 C-7.64512655 104.52688488 -11.07648379 106.50269191 -14.875 108.4375 C-15.52243164 108.76766113 -16.16986328 109.09782227 -16.83691406 109.43798828 C-33.66341893 117.41700833 -57.43563586 116.30836147 -74.90332031 110.76708984 C-81.2265858 108.45366412 -87.13117365 105.27127183 -93 102 C-93.66 101.67 -94.32 101.34 -95 101 C-92.66062389 93.33204498 -89.45231194 86.22862726 -86 79 C-82.71537009 79.60614118 -79.9516196 80.94146585 -76.97705078 82.42553711 C-63.18061698 89.2674564 -46.95135357 93.21311676 -31.6875 88.8125 C-28.04236543 87.30075814 -25.89737114 85.54725908 -24 82 C-23.25 79 -23.25 79 -24 76 C-30.08891041 67.47552543 -42.57756879 66.00601564 -52.125 63.75 C-81.44759502 56.43925526 -81.44759502 56.43925526 -89 44 C-89.35320312 43.4328125 -89.70640625 42.865625 -90.0703125 42.28125 C-93.74492002 34.73340752 -93.18215984 22.98154838 -90.9375 15.0625 C-86.59908754 4.48888081 -78.30323029 -1.86799472 -68.0625 -6.25 C-46.83999415 -14.78391769 -19.43507253 -11.43239561 0 0 Z " fill="#101010" transform="translate(206,57)"/>
<path d="M0 0 C8.81161999 7.1791884 12.46467452 16.35831526 13.79928589 27.53686523 C14.21936649 32.69203406 14.12019409 37.86263135 14.09765625 43.03125 C14.0962413 44.26290894 14.09482635 45.49456787 14.09336853 46.7635498 C14.08779612 50.67572516 14.07524867 54.58784211 14.0625 58.5 C14.05691482 61.1614575 14.05291916 63.82291444 14.04882812 66.484375 C14.03868902 72.98962364 14.01910812 79.49474686 14 86 C5.42 86 -3.16 86 -12 86 C-12.495 82.04 -12.495 82.04 -13 78 C-13.4125 78.39832031 -13.825 78.79664063 -14.25 79.20703125 C-22.19523206 86.49607227 -30.87521509 88.31590386 -41.54296875 88.15234375 C-51.25092223 87.55041977 -60.20541847 85.20330212 -67.6171875 78.6015625 C-72.6139354 72.81436861 -75.20794793 65.60309619 -75 58 C-74.44768722 50.6243231 -72.27084103 45.24741507 -67 40 C-55.65524817 30.65153497 -40.93191922 30.84187437 -27 30.9375 C-25.12248047 30.94426758 -25.12248047 30.94426758 -23.20703125 30.95117188 C-20.13797059 30.96288585 -17.06901093 30.97928927 -14 31 C-14.43584875 29.5583029 -14.8834603 28.12015877 -15.3359375 26.68359375 C-15.5839209 25.88236084 -15.8319043 25.08112793 -16.08740234 24.25561523 C-17.57747994 20.57267598 -19.65540106 19.04392157 -23 17 C-32.71989365 13.16218485 -43.08567023 15.25001544 -52.52734375 18.8671875 C-55.08943297 19.98340486 -55.08943297 19.98340486 -57.69140625 21.6328125 C-60 23 -60 23 -62 23 C-63.53706073 20.0707161 -65.05175162 17.13042886 -66.5625 14.1875 C-67.21895508 12.93743164 -67.21895508 12.93743164 -67.88867188 11.66210938 C-68.29794922 10.85966797 -68.70722656 10.05722656 -69.12890625 9.23046875 C-69.51119385 8.49207764 -69.89348145 7.75368652 -70.28735352 6.99291992 C-71 5 -71 5 -70 2 C-51.35011687 -10.15883722 -18.77306365 -13.79932368 0 0 Z M-45 51 C-47.45577958 54.68366937 -47.8103156 57.72287024 -47 62 C-43.95047546 66.12582731 -41.02495918 68.05189449 -36 69 C-30.13163738 68.99042681 -24.9526098 68.34013219 -20 65 C-15.60510664 60.58519712 -15.60510664 60.58519712 -13.90234375 54.8359375 C-13.91394531 54.02382812 -13.92554688 53.21171875 -13.9375 52.375 C-13.94652344 51.55773437 -13.95554687 50.74046875 -13.96484375 49.8984375 C-13.97644531 49.27195313 -13.98804688 48.64546875 -14 48 C-17.85402129 47.91229617 -21.70778291 47.85937265 -25.5625 47.8125 C-26.64853516 47.78736328 -27.73457031 47.76222656 -28.85351562 47.73632812 C-35.01072598 47.68018335 -39.6358537 47.84332132 -45 51 Z " fill="#101010" transform="translate(370,83)"/>
<path d="M0 0 C8.91 0 17.82 0 27 0 C27 7.59 27 15.18 27 23 C34.59 23 42.18 23 50 23 C50 29.93 50 36.86 50 44 C42.41 44 34.82 44 27 44 C27.09722022 49.42642335 27.20012747 54.85213333 27.31738281 60.27807617 C27.35553358 62.12176046 27.3904101 63.96551566 27.421875 65.80932617 C27.46782895 68.46819301 27.5257716 71.12657753 27.5859375 73.78515625 C27.60326431 75.01057884 27.60326431 75.01057884 27.62094116 76.26075745 C27.74578524 81.16337098 28.21302501 85.40561894 30 90 C33.01943979 91.00647993 35.15267045 91.16564779 38.3125 91.1875 C39.69888672 91.20876953 39.69888672 91.20876953 41.11328125 91.23046875 C44.59286646 91.06873824 44.59286646 91.06873824 50 89 C52.31 95.6 54.62 102.2 57 109 C44.38479878 115.30760061 32.70249567 116.79636244 19 113 C10.78566882 109.69879312 5.35466463 104.59703275 1.85644531 96.46533203 C-0.32713937 90.814285 -0.51752236 85.74406111 -0.390625 79.7421875 C-0.38496521 78.71312286 -0.37930542 77.68405823 -0.37347412 76.62380981 C-0.35128703 73.37371026 -0.30112415 70.12475989 -0.25 66.875 C-0.22991216 64.65626605 -0.21166542 62.43751462 -0.1953125 60.21875 C-0.15148023 54.8120649 -0.0825766 49.40622651 0 44 C-4.95 44 -9.9 44 -15 44 C-15 37.07 -15 30.14 -15 23 C-10.05 23 -5.1 23 0 23 C0 15.41 0 7.82 0 0 Z " fill="#101010" transform="translate(231,56)"/>
<path d="M0 0 C9.24 0 18.48 0 28 0 C28 30.69 28 61.38 28 93 C18.76 93 9.52 93 0 93 C0 62.31 0 31.62 0 0 Z " fill="#22953B" transform="translate(564,76)"/>
<path d="M0 0 C0.66 0.33 1.32 0.66 2 1 C4.66843239 9.00529716 5.61718927 18.22178206 2.17578125 26.1484375 C-0.80631258 30.84449224 -5.078734 34.09818127 -10.0625 36.4375 C-13.43407061 37.0831199 -16.57523971 37.13699041 -20 37 C-20.46450943 30.49686791 -19.32575612 26.5825192 -16 21 C-19.24129651 24.24129651 -20.58245621 27.32982485 -21.6875 31.75 C-21.93886719 32.73484375 -22.19023438 33.7196875 -22.44921875 34.734375 C-22.72185547 35.85585937 -22.72185547 35.85585937 -23 37 C-25.77889489 34.46274815 -26.83668864 32.55547376 -27.23828125 28.73046875 C-27.26277344 27.89128906 -27.28726563 27.05210938 -27.3125 26.1875 C-27.34988281 25.35605469 -27.38726563 24.52460937 -27.42578125 23.66796875 C-26.81799664 19.85955691 -25.49480372 17.94628146 -23 15 C-20.33689453 13.21783088 -17.52249101 11.85913238 -14.625 10.5 C-8.6768104 7.68080597 -4.44252542 4.90793284 0 0 Z " fill="#209C3F" transform="translate(596,29)"/>
<path d="M0 0 C0.95003906 -0.00515625 1.90007812 -0.0103125 2.87890625 -0.015625 C5.4375 0.25 5.4375 0.25 8.4375 2.25 C8.7675 1.59 9.0975 0.93 9.4375 0.25 C10.7575 0.25 12.0775 0.25 13.4375 0.25 C13.5119389 4.2884057 13.56623729 8.32654293 13.60229492 12.36547852 C13.61733432 13.73794517 13.63777133 15.11036414 13.66381836 16.48266602 C13.70041221 18.46088656 13.71566698 20.43946514 13.73046875 22.41796875 C13.7461792 23.60672607 13.76188965 24.7954834 13.77807617 26.02026367 C13.40416822 29.56609038 12.54340752 31.40710541 10.4375 34.25 C5.83325679 37.52039593 -0.18288246 36.74492481 -5.5625 36.25 C-7.93224789 35.49360446 -9.47827651 34.63948233 -11.5625 33.25 C-11.5625 32.26 -11.5625 31.27 -11.5625 30.25 C-8.5625 29.25 -8.5625 29.25 -6.375 30.1875 C-2.5183389 31.64446086 0.31507688 31.51596278 4.4375 31.25 C7.75210705 29.54107501 7.75210705 29.54107501 8.125 26.125 C8.228125 25.17625 8.33125 24.2275 8.4375 23.25 C7.4475 23.91 6.4575 24.57 5.4375 25.25 C-0.2787464 26.70708242 -4.53298365 26.22843376 -9.5625 23.25 C-12.73375519 19.92018205 -13.81993055 17.25269536 -14.0625 12.75 C-13.85260984 8.30482625 -12.53322239 5.63332273 -9.5625 2.25 C-6.35417568 0.20198469 -3.77039455 -0.02051915 0 0 Z M-8.5625 9.25 C-9.3503128 13.6617517 -9.09225133 15.47192774 -6.5625 19.1875 C-3.24666309 21.46713788 -1.45347289 22.06667462 2.49609375 21.796875 C6.25588767 20.73777812 7.59146038 18.52523158 9.4375 15.25 C9.50567573 11.29580795 9.0040223 9.13377478 6.875 5.8125 C4.03565481 3.99240693 1.77672437 3.61590798 -1.58984375 3.8046875 C-5.13413515 4.60478497 -6.56725077 6.31947769 -8.5625 9.25 Z " fill="#101010" transform="translate(424.5625,202.75)"/>
<path d="M0 0 C0.95003906 -0.00515625 1.90007812 -0.0103125 2.87890625 -0.015625 C5.4375 0.25 5.4375 0.25 8.4375 2.25 C8.7675 1.59 9.0975 0.93 9.4375 0.25 C10.7575 0.25 12.0775 0.25 13.4375 0.25 C13.5119389 4.2884057 13.56623729 8.32654293 13.60229492 12.36547852 C13.61733432 13.73794517 13.63777133 15.11036414 13.66381836 16.48266602 C13.70041221 18.46088656 13.71566698 20.43946514 13.73046875 22.41796875 C13.7461792 23.60672607 13.76188965 24.7954834 13.77807617 26.02026367 C13.40416822 29.56609038 12.54340752 31.40710541 10.4375 34.25 C5.83325679 37.52039593 -0.18288246 36.74492481 -5.5625 36.25 C-7.93224789 35.49360446 -9.47827651 34.63948233 -11.5625 33.25 C-11.2325 31.93 -10.9025 30.61 -10.5625 29.25 C-9.5725 29.58 -8.5825 29.91 -7.5625 30.25 C-3.42507729 31.4273154 0.14330343 31.53627977 4.4375 31.25 C7.75210705 29.54107501 7.75210705 29.54107501 8.125 26.125 C8.228125 25.17625 8.33125 24.2275 8.4375 23.25 C7.4475 23.91 6.4575 24.57 5.4375 25.25 C-0.2787464 26.70708242 -4.53298365 26.22843376 -9.5625 23.25 C-12.73375519 19.92018205 -13.81993055 17.25269536 -14.0625 12.75 C-13.85260984 8.30482625 -12.53322239 5.63332273 -9.5625 2.25 C-6.35417568 0.20198469 -3.77039455 -0.02051915 0 0 Z M-8.5625 8.25 C-10.00487527 11.67564128 -9.68006353 12.95021299 -8.3125 16.4375 C-6.70439118 19.45397879 -6.70439118 19.45397879 -3.5625 21.25 C-0.46622055 21.64951993 1.47737352 21.89950348 4.4375 21.25 C7.67759686 18.84524336 7.67759686 18.84524336 9.4375 15.25 C9.50567573 11.29580795 9.0040223 9.13377478 6.875 5.8125 C1.25983013 2.21303214 -4.28661911 3.45583052 -8.5625 8.25 Z " fill="#101010" transform="translate(316.5625,202.75)"/>
<path d="M0 0 C2.296875 0 2.296875 0 5 1 C6.35159831 3.72711871 7.33359567 6.1325413 8.25 9 C9.53172219 13.8697584 9.53172219 13.8697584 12 18 C14.31 12.06 16.62 6.12 19 0 C20.65 0 22.3 0 24 0 C25.00605593 2.60197202 26.00502525 5.20629362 27 7.8125 C27.42925781 8.91948242 27.42925781 8.91948242 27.8671875 10.04882812 C28.13789063 10.76103516 28.40859375 11.47324219 28.6875 12.20703125 C28.93886719 12.8616333 29.19023437 13.51623535 29.44921875 14.19067383 C30 16 30 16 30 19 C30.66 19 31.32 19 32 19 C32.11214844 18.32582031 32.22429687 17.65164062 32.33984375 16.95703125 C33.12920501 13.42125328 34.31499849 10.08056434 35.5625 6.6875 C35.91344727 5.71973633 35.91344727 5.71973633 36.27148438 4.73242188 C36.84447007 3.15378781 37.42179464 1.57672974 38 0 C39.65 0 41.3 0 43 0 C40.56696874 8.87842985 37.29163506 17.41405225 34 26 C32.02 26 30.04 26 28 26 C27.57847656 24.85660156 27.15695313 23.71320313 26.72265625 22.53515625 C26.16941479 21.04421741 25.61602153 19.55333489 25.0625 18.0625 C24.64581055 16.93038086 24.64581055 16.93038086 24.22070312 15.77539062 C23.08246549 12.11220861 23.08246549 12.11220861 21 9 C18.69 14.61 16.38 20.22 14 26 C12.35 26 10.7 26 9 26 C8.79842285 25.48091064 8.5968457 24.96182129 8.38916016 24.42700195 C7.46803187 22.05540083 6.54651921 19.68394924 5.625 17.3125 C5.14933594 16.08756836 5.14933594 16.08756836 4.6640625 14.83789062 C4.3546875 14.04189453 4.0453125 13.24589844 3.7265625 12.42578125 C3.27845215 11.26876709 3.27845215 11.26876709 2.82128906 10.08837891 C2.1640694 8.41719668 1.47408726 6.75891293 0.7734375 5.10546875 C0 3 0 3 0 0 Z " fill="#101010" transform="translate(203,203)"/>
<path d="M0 0 C2.4375 1.6875 2.4375 1.6875 4.4375 4.6875 C2.875 5.875 2.875 5.875 0.4375 6.6875 C-1.26192062 5.93583319 -2.95985648 5.17963491 -4.63671875 4.37890625 C-8.07691988 3.14378333 -11.13995827 3.53741513 -14.5625 4.6875 C-18.02105505 6.76862187 -20.25597606 8.76792819 -21.5625 12.6875 C-21.95558695 17.48316077 -22.04520142 19.75657584 -19.8125 24.0625 C-17.08382558 27.24595349 -15.2522467 28.53221175 -11.0546875 28.91796875 C-9.75917969 28.89669922 -9.75917969 28.89669922 -8.4375 28.875 C-7.56867188 28.86855469 -6.69984375 28.86210937 -5.8046875 28.85546875 C-3.5260455 28.8272507 -3.5260455 28.8272507 -1.5625 27.6875 C-1.09351037 24.8715151 -1.09351037 24.8715151 -0.9375 21.625 C-0.86273438 20.52027344 -0.78796875 19.41554687 -0.7109375 18.27734375 C-0.66195312 17.42269531 -0.61296875 16.56804687 -0.5625 15.6875 C1.0875 15.6875 2.7375 15.6875 4.4375 15.6875 C4.4375 20.6375 4.4375 25.5875 4.4375 30.6875 C-2.92997301 34.3712365 -8.55757443 36.17021198 -16.6875 33.5625 C-21.7832279 31.46890637 -24.17541073 28.13141919 -26.875 23.375 C-28.18983459 18.23519206 -28.18017906 13.54053717 -26.5 8.5 C-20.07750575 -0.82297552 -10.8160437 -3.98485821 0 0 Z " fill="#101010" transform="translate(136.5625,195.3125)"/>
<path d="M0 0 C3.53536291 2.02020738 5.76937948 4.08438925 7 8 C7 10.31 7 12.62 7 15 C0.07 15 -6.86 15 -14 15 C-11.57954138 20.14344722 -11.57954138 20.14344722 -7.625 21.4375 C-3.74848328 22.03902846 -2.42938195 21.66834798 1 20 C2.32 20 3.64 20 5 20 C5.33 20.66 5.66 21.32 6 22 C3.60633973 24.77160662 1.55491039 26.07263207 -2 27 C-7.20731149 27.00946784 -11.93088223 26.4707181 -16 23 C-18.98997971 18.56658181 -19.92270889 14.2624826 -19 9 C-17.73792194 5.69270826 -16.24535232 2.8104245 -13.19921875 0.828125 C-8.93288712 -0.77837998 -4.47553704 -0.54450154 0 0 Z M-12.5 6.375 C-14.16537965 8.78552327 -14.16537965 8.78552327 -14 11 C-8.39 11 -2.78 11 3 11 C1.52360997 5.93991361 1.52360997 5.93991361 -2 4 C-7.88513776 3.19038149 -7.88513776 3.19038149 -12.5 6.375 Z " fill="#101010" transform="translate(558,203)"/>
<path d="M0 0 C3.79842971 1.76409285 5.65769118 4.2375849 7.375 8.0625 C8 11 8 11 8 15 C-2.395 15.495 -2.395 15.495 -13 16 C-11.44966997 20.01274233 -11.44966997 20.01274233 -8.75 21.3125 C-4.01974926 22.49506268 -0.15887346 21.39935007 4 19 C4.66 20.32 5.32 21.64 6 23 C1.65498732 26.70427348 -2.40175523 27.14172772 -8 27 C-12.71211272 25.42929576 -15.44326357 23.26122738 -18 19 C-19.45602007 12.9817837 -19.18399429 9.51892343 -16 4 C-11.77761972 -1.14602596 -6.18907811 -1.04361288 0 0 Z M-11.375 5.8125 C-13.17066872 7.99221829 -13.17066872 7.99221829 -14 11 C-8.39 11 -2.78 11 3 11 C1.52360997 5.93991361 1.52360997 5.93991361 -2 4 C-7.0599951 3.44593191 -7.0599951 3.44593191 -11.375 5.8125 Z " fill="#101010" transform="translate(466,203)"/>
<path d="M0 0 C1.65 0 3.3 0 5 0 C5 4.29 5 8.58 5 13 C5.99 12.34 6.98 11.68 8 11 C10.7421875 10.59375 10.7421875 10.59375 13.875 10.5 C14.90367187 10.4484375 15.93234375 10.396875 16.9921875 10.34375 C20.380638 11.08304829 22.01320251 12.2318632 24.08007812 15.03027344 C25.92177096 18.9736858 25.5099938 23.11521058 25.3125 27.375 C25.28994141 28.30183594 25.26738281 29.22867188 25.24414062 30.18359375 C25.18553677 32.45742335 25.1035693 34.72784886 25 37 C23.68 37 22.36 37 21 37 C20.96261719 35.90300781 20.92523437 34.80601562 20.88671875 33.67578125 C20.82103347 32.22132143 20.75458701 30.76689584 20.6875 29.3125 C20.66494141 28.59126953 20.64238281 27.87003906 20.61914062 27.12695312 C20.39693116 22.70296475 19.93472967 19.53813204 17 16 C13.20572475 15.3791186 11.04344966 15.28625795 7.82421875 17.48828125 C5.18644579 21.12016136 5.33005081 24.36175988 5.25 28.75 C5.22035156 29.54277344 5.19070313 30.33554688 5.16015625 31.15234375 C5.08972213 33.10102094 5.04256518 35.05051495 5 37 C3.35 37 1.7 37 0 37 C0 24.79 0 12.58 0 0 Z " fill="#101010" transform="translate(505,192)"/>
<path d="M0 0 C3.47068806 1.65662034 5.44707863 4.04495399 7.375 7.375 C8.52902381 12.22189999 8.65545134 16.23794449 6.4375 20.75 C3.99130291 24.54759269 1.39861888 25.8462639 -3 27 C-7.87245254 27.27163498 -11.65197705 26.67229312 -15.5 23.5625 C-19.55026035 19.41098314 -19.33676415 16.39479273 -19.28515625 10.76953125 C-18.89011412 6.93275217 -17.59508601 4.81134318 -15 2 C-10.34238573 -0.90344786 -5.30796644 -0.75279408 0 0 Z M-12.4375 5.5625 C-14.51858903 8.80899889 -14.93249957 11.15247539 -15 15 C-13.70522492 18.16500574 -12.33130187 19.71471228 -9.75 21.9375 C-5.84644144 23.44569308 -3.78663019 22.61282397 0 21 C2.7740505 18.5838915 2.97283595 17.24900375 3.375 13.5625 C2.98139605 9.82326244 2.26342975 7.95986968 0 5 C-4.13807719 2.93096141 -8.63879309 3.12743147 -12.4375 5.5625 Z " fill="#101010" transform="translate(191,203)"/>
<path d="M0 0 C3.74032296 2.09458086 5.38521731 4.10511644 7 8 C7.62516103 12.35638525 7.98773174 16.93066119 6.0546875 20.98046875 C3.54104718 24.18180312 0.96282683 26.18942178 -3 27 C-7.71384906 27.13992873 -11.64112577 26.6996339 -15.4375 23.75 C-18.53198441 20.4290899 -19.926649 18.47101195 -20.0625 13.89453125 C-19.74707678 8.00991677 -18.1967416 5.09438205 -14 1 C-9.82437724 -1.08781138 -4.54816058 -0.44327867 0 0 Z M-14 8 C-15.56935594 11.13871188 -15.35201103 13.53855822 -15 17 C-12.72103757 19.99520777 -10.995378 21.6018488 -7.5 23 C-3.36253404 23 -1.10239334 20.99215401 1.875 18.3125 C3.60502849 14.75633032 3.10041143 11.72917207 2 8 C0.60314994 5.3530128 0.60314994 5.3530128 -2 4 C-7.28441029 2.95830927 -10.67718451 3.48097093 -14 8 Z " fill="#101010" transform="translate(397,203)"/>
<path d="M0 0 C2.66666667 0 5.33333333 0 8 0 C8.83273437 -0.04640625 9.66546875 -0.0928125 10.5234375 -0.140625 C18.24678777 -0.43686309 18.24678777 -0.43686309 22.125 1.8125 C24.8241129 4.96146505 25.12450286 7.44907411 25.09765625 11.44921875 C25.09443359 12.29677734 25.09121094 13.14433594 25.08789062 14.01757812 C25.07951172 14.89865234 25.07113281 15.77972656 25.0625 16.6875 C25.05798828 17.58017578 25.05347656 18.47285156 25.04882812 19.39257812 C25.03704983 21.59511987 25.02060164 23.79752599 25 26 C23.35 26 21.7 26 20 26 C19.98018066 25.43490723 19.96036133 24.86981445 19.93994141 24.28759766 C19.84481764 21.73292003 19.73508942 19.17907459 19.625 16.625 C19.5940625 15.73554688 19.563125 14.84609375 19.53125 13.9296875 C19.49257813 13.07890625 19.45390625 12.228125 19.4140625 11.3515625 C19.36693115 10.17327881 19.36693115 10.17327881 19.31884766 8.97119141 C19.1600535 6.76997061 19.1600535 6.76997061 17 5 C13.30288951 4.58920995 10.95912874 4.35026763 7.8203125 6.4765625 C5.19320689 10.11842994 5.33010374 13.35885853 5.25 17.75 C5.22035156 18.54277344 5.19070313 19.33554688 5.16015625 20.15234375 C5.08972213 22.10102094 5.04256518 24.05051495 5 26 C3.35 26 1.7 26 0 26 C0 17.42 0 8.84 0 0 Z " fill="#101010" transform="translate(269,203)"/>
<path d="M0 0 C1.65 0 3.3 0 5 0 C5 1.98 5 3.96 5 6 C7.64 6 10.28 6 13 6 C13 7.32 13 8.64 13 10 C10.36 10 7.72 10 5 10 C5.33 15.61 5.66 21.22 6 27 C9.85938975 28.34513424 9.85938975 28.34513424 13 27 C13.33 28.32 13.66 29.64 14 31 C10.88134716 33.0791019 10.46260478 33.28159374 7 32.875 C6.319375 32.81054688 5.63875 32.74609375 4.9375 32.6796875 C2.06601076 31.67235055 1.37013238 30.74026477 0 28 C-0.35622437 24.90647253 -0.2822133 21.85853906 -0.1875 18.75 C-0.17396484 17.90953125 -0.16042969 17.0690625 -0.14648438 16.203125 C-0.11123464 14.13514062 -0.0574302 12.06748729 0 10 C-1.32 10 -2.64 10 -4 10 C-4 8.68 -4 7.36 -4 6 C-2.68 6 -1.36 6 0 6 C0 4.02 0 2.04 0 0 Z " fill="#101010" transform="translate(483,197)"/>
<path d="M0 0 C1.65 0 3.3 0 5 0 C5 1.98 5 3.96 5 6 C7.64 6 10.28 6 13 6 C13 7.32 13 8.64 13 10 C10.36 10 7.72 10 5 10 C5.33 15.61 5.66 21.22 6 27 C9.85938975 28.34513424 9.85938975 28.34513424 13 27 C13.33 28.65 13.66 30.3 14 32 C6.7755102 33.20408163 6.7755102 33.20408163 3.625 32.375 C1.3462394 30.44681796 0.88529477 28.86576022 0 26 C-0.13760722 23.19006055 -0.19011573 20.48998076 -0.125 17.6875 C-0.11597656 16.94693359 -0.10695313 16.20636719 -0.09765625 15.44335938 C-0.07424213 13.62876533 -0.03837615 11.81433929 0 10 C-1.32 10 -2.64 10 -4 10 C-4 8.68 -4 7.36 -4 6 C-2.68 6 -1.36 6 0 6 C0 4.02 0 2.04 0 0 Z " fill="#101010" transform="translate(358,197)"/>
<path d="M0 0 C4.66666667 0 9.33333333 0 14 0 C14 1.32 14 2.64 14 4 C12.2984375 4.680625 12.2984375 4.680625 10.5625 5.375 C6.95278308 6.57095806 6.95278308 6.57095806 6 9 C5.76725791 11.87910588 5.58027243 14.74146495 5.4375 17.625 C5.37272461 18.82769531 5.37272461 18.82769531 5.30664062 20.0546875 C5.20048543 22.0362511 5.09973145 24.01810271 5 26 C3.35 26 1.7 26 0 26 C0 17.42 0 8.84 0 0 Z " fill="#101010" transform="translate(574,203)"/>
<path d="M0 0 C4.66666667 0 9.33333333 0 14 0 C14 1.32 14 2.64 14 4 C12.2984375 4.680625 12.2984375 4.680625 10.5625 5.375 C6.95278308 6.57095806 6.95278308 6.57095806 6 9 C5.76725791 11.87910588 5.58027243 14.74146495 5.4375 17.625 C5.37272461 18.82769531 5.37272461 18.82769531 5.30664062 20.0546875 C5.20048543 22.0362511 5.09973145 24.01810271 5 26 C3.35 26 1.7 26 0 26 C0 17.42 0 8.84 0 0 Z " fill="#101010" transform="translate(152,203)"/>
<path d="M0 0 C1.65 0 3.3 0 5 0 C5 8.58 5 17.16 5 26 C3.35 26 1.7 26 0 26 C0 17.42 0 8.84 0 0 Z " fill="#101010" transform="translate(253,203)"/>
<path d="M0 0 C2.0625 0.1875 2.0625 0.1875 4 1 C4.33 1.99 4.66 2.98 5 4 C4.67 4.66 4.34 5.32 4 6 C2.35 6 0.7 6 -1 6 C-1.625 4.125 -1.625 4.125 -2 2 C-1.34 1.34 -0.68 0.68 0 0 Z " fill="#101010" transform="translate(254,192)"/>
</svg>
